# xmcd CD database file
#
# Track frame offsets:
#	150
#	38705
#	70458
#	101135
#	114648
#	144968
#
# Disc length: 2261 seconds
#
# Revision: 1
# Processed by: cddbd v1.5.2PL0 Copyright (c) Steve Scherf et al.
# Submitted via: CDex 1.78
#
DISCID=5208d306
DTITLE=Nina Simone - In Paris (1968)
DYEAR=1968
DGENRE=Vocal
TTITLE0=Black Is The Colour Of My True Love's Hair
TTITLE1=Ain't Got No - I Got Life
TTITLE2=Mama Lou - Don't Let Me Be Misunderstood
TTITLE3=To Love Somebody
TTITLE4=Susanne
TTITLE5=Be My Husband
EXTD=YEAR: 1968
EXTT0=
EXTT1=
EXTT2=
EXTT3=
EXTT4=
EXTT5=
PLAYORDER=
